<?xml version="1.0" encoding="utf-8"?>
<!-- Generator: Adobe Illustrator 27.5.0, SVG Export Plug-In . SVG Version: 6.00 Build 0)  -->
<svg version="1.1" xmlns="http://www.w3.org/2000/svg" xmlns:xlink="http://www.w3.org/1999/xlink" x="0px" y="0px"
	 viewBox="0 0 500 500" style="enable-background:new 0 0 500 500;" xml:space="preserve">
<g id="BACKGROUND">
	<g>
		<path style="fill:#F8D6FF;" d="M321.202,59.577c39.25,12.25,81.898,32.317,104.899,66.919
			c30.407,45.741,51.852,114.018,31.716,173.847C437.51,360.68,361.459,406.291,298.43,403.36
			c-48.755-2.267-85.695-33.392-133.002-12.914c-20.729,8.973-22.574,18.817-35.034,18.984
			c-44.522,0.597-116.501-123.81-82.698-226.121C84.145,72.991,212.074,25.519,321.202,59.577z"/>
	</g>
	<g>
		<path style="fill:#FFFFFF;" d="M410.198,239.904l-1.001-3.734c2.295-1.296,4.457-2.913,6.412-4.867
			c1.846-1.845,3.395-3.875,4.653-6.027l3.838,1.028c0.673,0.18,1.366-0.219,1.546-0.893l3.285-12.26
			c0.18-0.674-0.219-1.366-0.893-1.546l-3.739-1.002c0.052-5.189-1.249-10.387-3.901-15.025l2.813-2.813
			c0.493-0.493,0.493-1.292,0-1.785l-8.975-8.975c-0.493-0.493-1.292-0.493-1.785,0l-2.728,2.728
			c-4.603-2.725-9.784-4.097-14.971-4.122l-1.03-3.846c-0.18-0.673-0.873-1.073-1.546-0.893l-12.26,3.285
			c-0.673,0.181-1.073,0.873-0.893,1.546l1.001,3.734c-2.295,1.296-4.457,2.913-6.412,4.867c-1.846,1.846-3.395,3.875-4.653,6.027
			l-3.838-1.029c-0.673-0.18-1.366,0.219-1.546,0.893l-3.285,12.26c-0.18,0.673,0.219,1.366,0.893,1.546l3.739,1.002
			c-0.052,5.189,1.249,10.387,3.901,15.025l-2.813,2.813c-0.493,0.493-0.493,1.292,0,1.785l8.975,8.975
			c0.493,0.493,1.292,0.493,1.785,0l2.728-2.728c4.604,2.725,9.784,4.097,14.971,4.122l1.03,3.846
			c0.18,0.673,0.873,1.073,1.546,0.893l12.26-3.285C409.979,241.27,410.379,240.578,410.198,239.904z M381.272,223.642
			c-7.367-7.367-7.367-19.31,0-26.677c7.367-7.367,19.31-7.367,26.677,0c7.367,7.367,7.367,19.31,0,26.677
			C400.582,231.009,388.639,231.009,381.272,223.642z"/>
		<path style="fill:#FFFFFF;" d="M367.223,170.671l-0.474-1.768c1.086-0.613,2.11-1.379,3.035-2.304
			c0.874-0.874,1.607-1.834,2.202-2.853l1.817,0.487c0.319,0.085,0.646-0.104,0.732-0.423l1.555-5.803
			c0.085-0.319-0.104-0.646-0.423-0.732l-1.77-0.474c0.025-2.456-0.591-4.916-1.847-7.112l1.331-1.332
			c0.233-0.233,0.233-0.612,0-0.845l-4.248-4.248c-0.233-0.233-0.612-0.233-0.845,0l-1.291,1.291
			c-2.179-1.29-4.631-1.939-7.086-1.951l-0.488-1.82c-0.085-0.319-0.413-0.508-0.732-0.423l-5.803,1.555
			c-0.319,0.085-0.508,0.413-0.423,0.732l0.474,1.768c-1.086,0.613-2.11,1.379-3.035,2.304c-0.874,0.874-1.607,1.834-2.202,2.853
			l-1.817-0.487c-0.319-0.085-0.646,0.104-0.732,0.423l-1.555,5.803c-0.085,0.319,0.104,0.646,0.423,0.732l1.77,0.474
			c-0.025,2.456,0.591,4.917,1.846,7.112l-1.331,1.331c-0.233,0.233-0.233,0.612,0,0.845l4.248,4.248
			c0.233,0.233,0.612,0.233,0.845,0l1.291-1.291c2.179,1.29,4.631,1.939,7.086,1.951l0.488,1.82
			c0.085,0.319,0.413,0.508,0.732,0.423l5.803-1.555C367.119,171.318,367.308,170.99,367.223,170.671z M353.531,162.974
			c-3.487-3.487-3.487-9.14,0-12.627c3.487-3.487,9.14-3.487,12.627,0c3.487,3.487,3.487,9.14,0,12.627
			C362.671,166.461,357.018,166.461,353.531,162.974z"/>
	</g>
	<path style="fill:#FFFFFF;" d="M135.787,354.099l-0.807-3.012c1.851-1.045,3.595-2.349,5.172-3.926
		c1.489-1.489,2.738-3.125,3.753-4.862l3.096,0.83c0.543,0.146,1.102-0.177,1.247-0.72l2.65-9.889
		c0.146-0.543-0.177-1.102-0.72-1.247l-3.016-0.808c0.042-4.186-1.008-8.379-3.147-12.12l2.269-2.269
		c0.398-0.398,0.398-1.043,0-1.44l-7.24-7.24c-0.398-0.398-1.042-0.398-1.44,0l-2.201,2.201c-3.713-2.198-7.892-3.305-12.076-3.325
		l-0.831-3.102c-0.146-0.543-0.704-0.866-1.247-0.72l-9.89,2.65c-0.543,0.146-0.866,0.704-0.72,1.247l0.807,3.012
		c-1.851,1.045-3.595,2.349-5.172,3.926c-1.489,1.489-2.738,3.126-3.753,4.862l-3.096-0.83c-0.543-0.146-1.102,0.177-1.247,0.72
		l-2.65,9.889c-0.146,0.543,0.177,1.102,0.72,1.247l3.016,0.808c-0.042,4.186,1.008,8.378,3.147,12.12l-2.269,2.269
		c-0.398,0.398-0.398,1.043,0,1.44l7.24,7.24c0.398,0.398,1.042,0.398,1.44,0l2.201-2.201c3.713,2.198,7.892,3.305,12.076,3.325
		l0.831,3.102c0.146,0.543,0.704,0.866,1.247,0.72l9.889-2.65C135.61,355.201,135.932,354.642,135.787,354.099z M112.454,340.982
		c-5.942-5.942-5.942-15.576,0-21.518c5.942-5.942,15.576-5.942,21.518,0c5.942,5.942,5.942,15.576,0,21.518
		C128.03,346.924,118.396,346.924,112.454,340.982z"/>
	<g>
		<polygon style="fill:#FFFFFF;" points="418.31,298.933 404.038,288.207 404.038,305.84 432.582,305.84 432.582,288.207 		"/>
		<polygon style="fill:#FFFFFF;" points="404.038,288.207 432.582,288.207 418.31,277.482 		"/>
		<polygon style="fill:#F8D6FF;" points="432.582,288.207 404.038,288.207 418.31,298.933 		"/>
	</g>
	<g>
		<polygon style="fill:#FFFFFF;" points="74.551,239.202 59.08,227.576 59.08,246.689 90.021,246.689 90.021,227.576 		"/>
		<polygon style="fill:#FFFFFF;" points="59.08,227.576 90.021,227.576 74.551,215.95 		"/>
		<polygon style="fill:#F8D6FF;" points="90.021,227.576 59.08,227.576 74.551,239.202 		"/>
	</g>
	<g>
		<polyline style="fill:none;stroke:#FFFFFF;stroke-miterlimit:10;" points="343.849,112.134 350.967,120.134 358.085,112.134 
			365.205,120.134 372.321,112.134 379.443,120.134 386.57,112.134 393.697,120.134 		"/>
	</g>
	<g>
		<polyline style="fill:none;stroke:#FFFFFF;stroke-miterlimit:10;" points="59.08,284.207 66.198,292.207 73.316,284.207 
			80.436,292.207 87.552,284.207 94.674,292.207 101.801,284.207 108.928,292.207 		"/>
	</g>
</g>
<g id="OBJECTS">
	<g>
		<g>
			<rect x="105.949" y="85.277" style="fill:#FFFFFF;" width="218.312" height="186.629"/>
			<g>
				<g>
					<rect x="139.741" y="127.429" style="fill:#F8D6FF;" width="32.308" height="32.896"/>
					<rect x="180.041" y="127.429" style="fill:#F8D6FF;" width="32.308" height="32.896"/>
					<rect x="220.34" y="127.429" style="fill:#F8D6FF;" width="32.308" height="32.896"/>
					<rect x="139.741" y="171.256" style="fill:#F8D6FF;" width="32.308" height="32.896"/>
					<rect x="180.041" y="171.256" style="fill:#F8D6FF;" width="32.308" height="32.896"/>
					<rect x="220.34" y="171.256" style="fill:#F8D6FF;" width="32.308" height="32.896"/>
					<rect x="139.741" y="215.084" style="fill:#F8D6FF;" width="32.308" height="32.896"/>
					<rect x="259.708" y="127.429" style="fill:#F8D6FF;" width="32.308" height="32.896"/>
					<rect x="259.708" y="171.256" style="fill:#F8D6FF;" width="32.308" height="32.896"/>
					<rect x="259.708" y="215.084" style="fill:#F8D6FF;" width="32.308" height="32.896"/>
					<rect x="180.041" y="215.084" style="fill:#F8D6FF;" width="32.308" height="32.896"/>
				</g>
				<rect x="220.34" y="215.084" style="fill:#F8D6FF;" width="32.308" height="32.896"/>
			</g>
			<path style="fill:#B765EB;" d="M324.261,106.941H105.949V84.495c0-6.885,5.582-12.467,12.467-12.467h193.378
				c6.885,0,12.467,5.582,12.467,12.467V106.941z"/>
			<g>
				<circle style="fill:#FFFFFF;" cx="142.207" cy="89.485" r="5.781"/>
				<circle style="fill:#FFFFFF;" cx="176.725" cy="89.485" r="5.781"/>
				<circle style="fill:#FFFFFF;" cx="211.244" cy="89.485" r="5.781"/>
				<circle style="fill:#FFFFFF;" cx="245.763" cy="89.485" r="5.781"/>
				<circle style="fill:#FFFFFF;" cx="280.281" cy="89.485" r="5.781"/>
			</g>
		</g>
		<g>
			<line style="fill:none;stroke:#4C4C4C;stroke-miterlimit:10;" x1="203.148" y1="136.923" x2="189.241" y2="150.83"/>
			<line style="fill:none;stroke:#4C4C4C;stroke-miterlimit:10;" x1="203.148" y1="150.83" x2="189.241" y2="136.923"/>
		</g>
		<g>
			<line style="fill:none;stroke:#28B1D4;stroke-miterlimit:10;" x1="162.849" y1="180.75" x2="148.942" y2="194.658"/>
			<line style="fill:none;stroke:#28B1D4;stroke-miterlimit:10;" x1="162.849" y1="194.658" x2="148.942" y2="180.75"/>
		</g>
		<path style="fill:#FFDF3D;" d="M142.328,91.245h-0.243c-2.134,0-3.864-1.73-3.864-3.864V66.819c0-2.134,1.73-3.864,3.864-3.864
			h0.243c2.134,0,3.864,1.73,3.864,3.864v20.562C146.192,89.515,144.462,91.245,142.328,91.245z"/>
		<path style="fill:#FFDF3D;" d="M176.847,91.245h-0.243c-2.134,0-3.864-1.73-3.864-3.864V66.819c0-2.134,1.73-3.864,3.864-3.864
			h0.243c2.134,0,3.864,1.73,3.864,3.864v20.562C180.711,89.515,178.981,91.245,176.847,91.245z"/>
		<path style="fill:#FFDF3D;" d="M211.365,91.245h-0.243c-2.134,0-3.864-1.73-3.864-3.864V66.819c0-2.134,1.73-3.864,3.864-3.864
			h0.243c2.134,0,3.864,1.73,3.864,3.864v20.562C215.23,89.515,213.5,91.245,211.365,91.245z"/>
		<path style="fill:#FFDF3D;" d="M245.884,91.245h-0.243c-2.134,0-3.864-1.73-3.864-3.864V66.819c0-2.134,1.73-3.864,3.864-3.864
			h0.243c2.134,0,3.864,1.73,3.864,3.864v20.562C249.748,89.515,248.018,91.245,245.884,91.245z"/>
		<path style="fill:#FFDF3D;" d="M280.403,91.245h-0.243c-2.134,0-3.864-1.73-3.864-3.864V66.819c0-2.134,1.73-3.864,3.864-3.864
			h0.243c2.134,0,3.864,1.73,3.864,3.864v20.562C284.267,89.515,282.537,91.245,280.403,91.245z"/>
		<g>
			<line style="fill:none;stroke:#28B1D4;stroke-miterlimit:10;" x1="187.01" y1="179.791" x2="205.182" y2="179.791"/>
			<line style="fill:none;stroke:#28B1D4;stroke-miterlimit:10;" x1="187.01" y1="185.703" x2="205.182" y2="185.703"/>
			<line style="fill:none;stroke:#28B1D4;stroke-miterlimit:10;" x1="187.01" y1="191.615" x2="205.182" y2="191.615"/>
			<line style="fill:none;stroke:#28B1D4;stroke-miterlimit:10;" x1="187.01" y1="197.527" x2="205.182" y2="197.527"/>
		</g>
		<g>
			<line style="fill:none;stroke:#28B1D4;stroke-miterlimit:10;" x1="266.776" y1="134.789" x2="284.947" y2="134.789"/>
			<line style="fill:none;stroke:#28B1D4;stroke-miterlimit:10;" x1="266.776" y1="140.701" x2="284.947" y2="140.701"/>
			<line style="fill:none;stroke:#28B1D4;stroke-miterlimit:10;" x1="266.776" y1="146.613" x2="284.947" y2="146.613"/>
			<line style="fill:none;stroke:#28B1D4;stroke-miterlimit:10;" x1="266.776" y1="152.524" x2="284.947" y2="152.524"/>
		</g>
	</g>
	<g>
		<g>
			<g>
				<g>
					<polygon style="fill:#28B1D4;" points="122.473,415.95 93.155,418.613 114.214,399.607 120.421,400.163 118.969,395.351 
						124.455,390.441 134.765,406.868 					"/>
				</g>
				<g>
					<polygon style="fill:#303030;" points="106.745,417.379 103.859,412.57 117.968,399.943 114.214,399.607 93.155,418.613 					
						"/>
				</g>
				<g>
					<polygon style="fill:#303030;" points="119.81,398.139 125.878,392.709 124.455,390.441 118.969,395.351 					"/>
				</g>
			</g>
			<path style="fill:#FFAF82;" d="M131.248,408.115c0,0-9.397-1.398-16.07,8.498l10.368-0.687L131.248,408.115z"/>
		</g>
		<g>
			<g>
				<g>
					<polygon style="fill:#28B1D4;" points="107.576,419.071 78.258,421.735 99.318,402.728 105.524,403.285 104.072,398.473 
						109.559,393.563 119.868,409.989 					"/>
				</g>
				<g>
					<polygon style="fill:#303030;" points="91.848,420.5 88.963,415.692 103.071,403.065 99.318,402.728 78.258,421.735 					"/>
				</g>
				<g>
					<polygon style="fill:#303030;" points="104.914,401.261 110.982,395.83 109.559,393.563 104.072,398.473 					"/>
				</g>
			</g>
			<path style="fill:#FFAF82;" d="M116.351,411.236c0,0-9.397-1.398-16.069,8.498l10.368-0.687L116.351,411.236z"/>
		</g>
		<g>
			<path style="fill:#303030;" d="M153.586,333.287c0,0-7.74,25.796,3.095,34.971c6.704,5.676,7.57,24.025,7.57,24.025
				s-26.357,4.883-39.341,8.38l3.528,21.331c2.688-4.078,50.428,4.578,57.044-12.285c6.202-15.81,4.315-75.734,4.315-75.734
				L153.586,333.287z"/>
			<g>
				<g>
					<polygon style="fill:#28B1D4;" points="192.443,332.09 230.575,335.386 232.465,313.499 202.524,310.913 181.443,277.453 
						165.648,292.719 					"/>
				</g>
			</g>
			<path style="fill:#303030;" d="M148.304,338.32c0,0-11.846,24.187-2.653,35.007c5.688,6.694,3.548,24.939,3.548,24.939
				s-26.801,0.517-40.181,1.848v21.621c3.318-3.585,62.01,9.057,67.5-14.472c3.859-16.538,7.4-62.355,7.4-62.355L148.304,338.32z"/>
			<path style="fill:#FFFFFF;" d="M171.152,269.071l-22.074,5.722c-11.658,3.941-15.567,11.822-13.973,18.334l10.611,36.685
				l-2.144,21.753l47.033-5.167l-3.689-30.708c8.456-16.569-2.662-38.157-8.21-44.123c0,0-4.687-1.705-5.82-2.092
				C171.56,269.023,171.709,268.953,171.152,269.071z"/>
			<g>
				<path style="fill:#B765EB;" d="M181.771,403.112l-4.156,20.457c-0.148,0.729,0.729,1.217,1.27,0.707l20.267-19.075
					L181.771,403.112z"/>
				<path style="fill:#B765EB;" d="M275.552,403.112l4.156,20.457c0.148,0.729-0.729,1.217-1.271,0.707l-20.267-19.075
					L275.552,403.112z"/>
				<g>
					<g>
						<rect x="222.201" y="295.709" style="fill:#303030;" width="15.252" height="6.132"/>
						<path style="fill:#B765EB;" d="M239.78,297.312h-19.906c-1.211,0-2.192-0.982-2.192-2.193v-6.917
							c0-1.211,0.982-2.193,2.192-2.193h19.906c1.211,0,2.193,0.982,2.193,2.192v6.918
							C241.973,296.331,240.991,297.312,239.78,297.312z"/>
					</g>
					<g>
						
							<ellipse transform="matrix(0.1571 -0.9876 0.9876 0.1571 -165.4562 532.8054)" style="fill:#B765EB;" cx="229.403" cy="363.331" rx="62.895" ry="62.895"/>
						
							<ellipse transform="matrix(0.1576 -0.9875 0.9875 0.1576 -165.5335 532.6252)" style="fill:#FFFFFF;" cx="229.403" cy="363.331" rx="53.54" ry="53.54"/>
						<g>
							<path style="fill:#B765EB;" d="M276.564,363.331c0,0.902-0.732,1.634-1.634,1.634s-1.634-0.732-1.634-1.634
								s0.732-1.634,1.634-1.634S276.564,362.429,276.564,363.331z"/>
							<circle style="fill:#B765EB;" cx="183.945" cy="363.331" r="1.634"/>
						</g>
						<g>
							<path style="fill:#B765EB;" d="M229.437,410.458c-0.902,0-1.634-0.732-1.634-1.634s0.732-1.634,1.634-1.634
								c0.903,0,1.634,0.732,1.634,1.634S230.34,410.458,229.437,410.458z"/>
							<circle style="fill:#B765EB;" cx="229.437" cy="317.839" r="1.634"/>
						</g>
					</g>
					<polygon style="fill:#B765EB;" points="228.736,360.396 241.973,345.858 233.705,363.696 					"/>
					<g>
						
							<line style="fill:none;stroke:#919191;stroke-width:2;stroke-miterlimit:10;" x1="206.637" y1="323.968" x2="210.363" y2="330.422"/>
						
							<line style="fill:none;stroke:#919191;stroke-width:2;stroke-miterlimit:10;" x1="190.016" y1="340.664" x2="196.47" y2="344.391"/>
						
							<line style="fill:none;stroke:#919191;stroke-width:2;stroke-miterlimit:10;" x1="190.119" y1="386.176" x2="196.573" y2="382.45"/>
						
							<line style="fill:none;stroke:#919191;stroke-width:2;stroke-miterlimit:10;" x1="206.815" y1="402.797" x2="210.541" y2="396.344"/>
						
							<line style="fill:none;stroke:#919191;stroke-width:2;stroke-miterlimit:10;" x1="252.327" y1="402.694" x2="248.601" y2="396.241"/>
						
							<line style="fill:none;stroke:#919191;stroke-width:2;stroke-miterlimit:10;" x1="268.948" y1="385.998" x2="262.494" y2="382.272"/>
						
							<line style="fill:none;stroke:#919191;stroke-width:2;stroke-miterlimit:10;" x1="268.845" y1="340.486" x2="262.391" y2="344.212"/>
						
							<line style="fill:none;stroke:#919191;stroke-width:2;stroke-miterlimit:10;" x1="252.149" y1="323.865" x2="248.423" y2="330.319"/>
					</g>
				</g>
			</g>
			<path style="fill:#FFAF82;" d="M153.233,253.776l-0.426,18.26c0.194,1.967,5.267,6.692,10.558,7.553
				c3.104,0.505,5.77-2.243,5.231-5.342l-2.415-13.904L153.233,253.776z"/>
			<path style="fill:#ED864C;" d="M168.033,271.031l-1.096-6.265l-11.356-4.877l0.465,2.512
				C156.046,262.401,157.729,266.551,168.033,271.031z"/>
			<g>
				<polygon style="fill:#28B1D4;" points="152.128,274.087 152.865,269.559 166.329,279.05 164.272,284.812 				"/>
			</g>
			<g>
				<polygon style="fill:#28B1D4;" points="167.492,268.01 167.846,269.928 166.329,279.05 170.768,282.56 170.627,269.215 				"/>
			</g>
			<path style="fill:#FFAF82;" d="M153.768,262.525l11.923,5.505c2.332,1.165,4.988,0.974,7.069-0.276
				c1.629-0.978,2.698-2.674,3.162-4.517l4.988-14.758l-20.89-8.449L153.768,262.525z"/>
			<path style="fill:#303030;" d="M181.673,244.548c0.181,1.074-19.266,10.181-22.519,6.905c-6.38-6.424-6.049,7.795-6.049,7.795
				s-14.583-23.079,9.26-26.798C171.555,231.016,180.16,235.582,181.673,244.548z"/>
			<path style="fill:#303030;" d="M175.145,254.157c-0.17,0.34-0.032,0.754,0.308,0.923c0.34,0.17,0.754,0.032,0.923-0.308
				c0.17-0.34,0.032-0.754-0.308-0.924C175.728,253.679,175.315,253.817,175.145,254.157z"/>
			<path style="fill:#303030;" d="M172.278,261.076c-0.609-0.549-1.184-1.357-1.597-2.548c-0.028-0.082,0.016-0.173,0.098-0.202
				c0.082-0.029,0.173,0.014,0.202,0.098c1.329,3.829,4.313,3.477,4.439,3.461c0.086-0.011,0.168,0.049,0.178,0.136
				c0.012,0.087-0.049,0.167-0.135,0.179C175.44,262.204,173.759,262.411,172.278,261.076z"/>
			<path style="fill:#FFAF82;" d="M179.232,253.117l0.614,4.711c0.079,0.61-0.303,1.185-0.896,1.347l-1.946,0.533L179.232,253.117z"
				/>
			<g>
				<g>
					<path style="fill:#FFAF82;" d="M245.965,302.034l-4.154,3.001c-0.302,0.255-0.674,0.429-1.084,0.501
						c-1.224,0.216-3.759,0.538-3.503-0.55c0.337-1.429,5.1-5.319,5.1-5.319"/>
					<path style="fill:#FFAF82;" d="M249.174,303.424l-4.154,3.002c-0.302,0.255-0.674,0.429-1.084,0.501
						c-1.224,0.216-3.758,0.538-3.502-0.55c0.336-1.429,5.1-5.319,5.1-5.319"/>
					<path style="fill:#FFAF82;" d="M252.384,304.814l-4.155,3.001c-0.302,0.255-0.674,0.429-1.084,0.501
						c-1.224,0.216-3.759,0.538-3.503-0.549c0.337-1.429,5.1-5.319,5.1-5.319"/>
					<path style="fill:#FFAF82;" d="M251.522,304.532c0,0-4.333,3.196-4.669,4.625c-0.256,1.088,2.279,0.765,3.503,0.55
						c0.41-0.073,0.782-0.246,1.084-0.501l2.324-1.679c1.106-0.799,1.362-2.26,0.556-3.385c-1.354-1.889-5.568-3.339-9.169-4.686
						c-5.876-2.197-9.362,1.633-9.362,1.633l4.084,0.901L251.522,304.532z"/>
				</g>
			</g>
			<g>
				<g>
					<path style="fill:#FFAF82;" d="M199.056,335.057l11.616,0.164c0.35,0.005,0.676,0.079,0.946,0.219
						c0.806,0.418,2.381,1.345,1.432,1.766c-1.247,0.553-13.848,0.562-13.848,0.562"/>
					<path style="fill:#FFAF82;" d="M196.038,325.446l2.659,1.595c0.471,0.283,1.019,0.492,1.617,0.618l9.916,1.561
						c0,0,2.499,1.19,1.278,1.981c-1.221,0.791-12.337,0.707-12.337,0.707l13.419,0.189c0.282,0.004,0.544,0.063,0.764,0.174
						c0.855,0.432,2.921,1.581,1.778,2.088c-1.422,0.63-15.795,0.641-15.795,0.641"/>
					<path style="fill:#FFAF82;" d="M210.049,338.405c-0.333-0.326-1.114-0.623-2.07-0.855l-7.867,0.048l-0.436-6.101l-3.638-6.05
						l-6.265-0.427c0,0-7.409,5.059,0.145,12.49c0.521,0.513,1.258,0.878,2.109,1.058l7.265,1.537
						c0.153,0.013,0.306,0.014,0.464,0.002c1.57-0.126,9.743-0.279,10.312-0.53C210.392,339.431,210.355,338.703,210.049,338.405z"
						/>
				</g>
				<path style="fill:#FFAF82;" d="M198.256,327.583l-0.833-1.918c-0.324-0.888,0.757-1.441,1.663-2.221l3.201-2.188
					c0.41-0.28,0.368-0.749-0.087-0.88c-0.876-0.254-2.61-0.787-4.816,0.435l-8.45,4.376L198.256,327.583z"/>
			</g>
			<g>
				<path style="fill:#28B1D4;" d="M149.829,344.157l41.845-1.041l-1.583-21.911l-26.734,1.502l-3.803-12.371l-18.366-31.661
					l-1.966,1.846c-5.026,4.72-7.609,11.605-6.519,18.413c0.594,3.709,1.863,7.441,3.482,11.178L149.829,344.157z"/>
			</g>
			<path style="fill:#303030;" d="M160.695,252.1c0,0,21.58,2.5,23.719-7.171C186.553,235.257,170.201,233.839,160.695,252.1z"/>
			<path style="fill:#FFAF82;" d="M152.402,250.147c-1.081,2.163-0.204,4.792,1.959,5.873c2.163,1.081,4.792,0.203,5.873-1.959
				c1.081-2.163,0.204-4.792-1.959-5.873C156.112,247.107,153.483,247.984,152.402,250.147z"/>
			<g>
				
					<rect x="156.159" y="250.576" transform="matrix(0.9486 -0.3164 0.3164 0.9486 -71.7376 62.4138)" style="fill:#303030;" width="0.318" height="3.056"/>
				<polygon style="fill:#303030;" points="154.919,252.739 154.818,252.437 157.717,251.47 157.818,251.771 				"/>
			</g>
			
				<rect x="152.146" y="253.531" transform="matrix(0.866 -0.5 0.5 0.866 -106.9775 111.0714)" style="fill:#FFFFFF;" width="3.245" height="3.245"/>
		</g>
		<path style="fill:#303030;" d="M149.424,250.604c0,0-14.171,10.54-1.91,28.071c12.261,17.531,11.714,26.706,11.714,26.706
			s10.434-7.569,4.303-25.083C157.401,262.785,149.424,250.604,149.424,250.604z"/>
	</g>
	<g>
		<path style="fill:#B765EB;" d="M384.392,371.886c0,0,21.603-5.415,49.765,0C434.157,371.886,409.725,380.805,384.392,371.886z"/>
		<path style="fill:#303030;" d="M389.181,373.37c16.502,4.447,31.972,1.929,39.746,0.026
			C411.033,370.695,396.369,372.214,389.181,373.37z"/>
		<g>
			<path style="fill:#B765EB;" d="M428.602,416.873L428.602,416.873c-12.125,2.432-24.839,2.534-37.028,0.298l-1.627-0.298
				l-5.555-44.987l1.019,0.308c15.342,4.633,32.385,4.633,47.727,0l1.019-0.308L428.602,416.873z"/>
		</g>
		<path style="fill:#E2C12F;" d="M409.594,373.553c0,0,1.481-27.712,37.649-16.915C447.244,356.638,421.84,356.578,409.594,373.553z
			"/>
		<path style="fill:#E2C12F;" d="M409.594,373.553c0,0-6.523-53.394,38.344-38.297C447.938,335.256,413.947,344.422,409.594,373.553
			z"/>
		<path style="fill:#E2C12F;" d="M409.298,370.828c0,0-9.391-49.285,9.608-59.413c13.027-6.945,22.455,9.729,22.455,9.729
			S406.766,313.153,409.298,370.828z"/>
		<path style="fill:#E2C12F;" d="M409.619,373.55c0,0,3.278-15.634-13.686-19.662c-16.965-4.028-26.671,11.58-26.671,11.58
			S393.746,351.657,409.619,373.55z"/>
		<path style="fill:#E2C12F;" d="M409.787,368.678c0,0-3.733-33.19-19.459-34.49c-18.127-1.499-10.777,16.6-10.777,16.6
			S393.585,330.263,409.787,368.678z"/>
	</g>
	<g>
		<g>
			<path style="fill:#28B1D4;" d="M280.271,239.969l-32.954-22.416l11.134-17.553l30.49,19.824l37.217,1.354
				c5.866-0.038,10.56,4.857,10.277,10.716l0,0c-0.263,5.449-4.758,9.73-10.213,9.729L280.271,239.969z"/>
			
				<rect x="251.919" y="199.248" transform="matrix(0.8473 0.5311 -0.5311 0.8473 150.7882 -103.6364)" style="fill:#FFFFFF;" width="7.397" height="22.307"/>
		</g>
		<g>
			<path style="fill:#FF7661;" d="M319.611,318.863l22.675-17.767l0.71,0.907c4.33,5.525,3.36,13.515-2.165,17.844l-2.665,2.088
				c-5.525,4.33-13.515,3.36-17.844-2.165L319.611,318.863z"/>
			<g>
				
					<rect x="314.994" y="305.484" transform="matrix(0.7871 -0.6168 0.6168 0.7871 -119.8509 268.7253)" style="fill:#E6E6E6;" width="28.806" height="5.031"/>
			</g>
			<polygon style="fill:#FFBA9E;" points="213.404,183.32 236.078,165.553 205.568,149.968 			"/>
			<path style="fill:#4C4C4C;" d="M207.744,159.229c1.957-1.012,4.151-2.552,6.352-4.905l-8.527-4.356L207.744,159.229z"/>
			
				<rect x="263.934" y="162.568" transform="matrix(0.7871 -0.6168 0.6168 0.7871 -94.6163 218.1442)" style="fill:#C8AB2E;" width="9.602" height="167.166"/>
			
				<rect x="271.492" y="156.645" transform="matrix(0.7871 -0.6168 0.6168 0.7871 -89.3549 221.5469)" style="fill:#E2C12F;" width="9.602" height="167.166"/>
			
				<rect x="279.05" y="150.723" transform="matrix(0.7871 -0.6168 0.6168 0.7871 -84.0932 224.9456)" style="fill:#FFDF3D;" width="9.602" height="167.166"/>
			<path style="fill:#FFBA9E;" d="M220.958,177.402l-7.558,5.922l4.768,1.37c1.529,0.439,3.041-0.745,2.98-2.335L220.958,177.402z"
				/>
			<path style="fill:#FFBA9E;" d="M228.517,171.48l-7.558,5.922l4.768,1.37c1.529,0.439,3.041-0.745,2.98-2.335L228.517,171.48z"/>
			<path style="fill:#FFBA9E;" d="M236.075,165.557l-7.558,5.922l4.768,1.37c1.529,0.439,3.041-0.745,2.98-2.335L236.075,165.557z"
				/>
			<path style="fill:#E85C4A;" d="M346.515,308.851c-3.855,4.808-9.602,12.665-15.184,11.539c-3.06-0.617-3.797-3.472-6.877-5.323
				l-4.843,3.795l2.107,2.689c3.558,4.541,10.124,5.338,14.665,1.78l6.229-4.881C345.63,316.086,346.983,312.395,346.515,308.851z"
				/>
			<g>
				<polygon style="fill:#CCCCCC;" points="339.182,297.136 316.508,314.903 317.816,316.573 339.182,297.136 				"/>
			</g>
		</g>
		<g>
			<path style="fill:#D17752;" d="M240.549,219.831l1.357-4.962c0.133-0.374,0.165-0.784,0.089-1.195
				c-0.228-1.226-0.819-3.722-1.751-3.098c-1.224,0.82-5.544,4.651-5.544,4.651"/>
			<path style="fill:#D17752;" d="M242.987,222.358l1.358-4.962c0.133-0.374,0.165-0.784,0.089-1.196
				c-0.228-1.226-0.818-3.722-1.751-3.098c-1.224,0.82-5.544,4.65-5.544,4.65"/>
			<path style="fill:#D17752;" d="M245.424,224.886l1.357-4.963c0.133-0.374,0.165-0.784,0.089-1.195
				c-0.228-1.226-0.818-3.722-1.751-3.098c-1.224,0.82-3.202,6.667-3.202,6.667"/>
			<path style="fill:#D17752;" d="M244.855,224.175c0,0,1.477-5.198,2.702-6.018c0.9-0.602,1.216,0.42,1.442,1.595
				c0.02,0.102,0.032,0.2,0.038,0.303c0.012,0.222,0.02,0.642-0.038,1.186c-0.062,0.584-0.248,1.151-0.531,1.665l-1.119,2.033
				c-0.181,0.241-0.437,0.421-0.722,0.52c-1.687,0.585-2.262-0.202-3.496-0.534c-2.253-0.607-5.1-4.057-7.635-6.967
				c-4.136-4.749-1.763-9.375-1.763-9.375l2.36,3.027L244.855,224.175z"/>
		</g>
		<g>
			<g>
				<polygon style="fill:#28B1D4;" points="330.272,401.636 307.779,419.074 335.201,418.639 339.224,414.155 341.368,418.515 
					348.485,418.373 344.952,399.96 				"/>
				<polygon style="fill:#303030;" points="318.205,410.991 319.333,416.293 337.634,415.927 335.201,418.639 307.779,419.074 				
					"/>
				<polygon style="fill:#303030;" points="340.126,415.989 347.997,415.831 348.485,418.373 341.368,418.515 				"/>
			</g>
			<path style="fill:#303030;" d="M362.333,293.546c0,0,5.026,28.824-5.894,35.078c-6.756,3.869-9.987,32.952-9.987,32.952
				s4.896,40.374,5.225,42.098c0.328,1.724-25.596,0.858-26.643-0.21c0,0-2.49-39.417-2.789-46.498
				c-1.685-39.987,3.648-75.619,3.648-75.619L362.333,293.546z"/>
			<g>
				<polygon style="fill:#28B1D4;" points="392.968,390.704 384.422,417.173 406.315,401.712 407.092,395.875 411.225,398.214 
					416.891,394.177 403.893,381.262 				"/>
				<polygon style="fill:#303030;" points="388.383,404.904 392.216,408.563 406.785,398.182 406.315,401.712 384.422,417.173 				
					"/>
				<polygon style="fill:#303030;" points="408.83,396.859 415.097,392.395 416.891,394.177 411.225,398.214 				"/>
			</g>
			<path style="fill:#303030;" d="M365.143,283.592c0,0,18.894,22.341,12.626,33.253c-3.878,6.751,8.6,33.666,8.6,33.666
				s22.448,32.888,23.602,34.21c1.154,1.322-19.093,12.652-20.536,12.259c0,0-26.358-34.33-29.858-40.491
				c-13.823-24.329-27.953-60.638-27.953-60.638L365.143,283.592z"/>
		</g>
		<g>
			<g>
				<path style="fill:#28B1D4;" d="M317.13,223.057l27.504-2.485c12.032-0.213,16.622,6.361,17.301,12.882l1.708,31.152
					l6.064,25.311l-50.473,12.048l-9.891-51.52c-2.406-7.594-1.34-15.632,1.801-22.953c0.565-1.318,1.313-2.246,2.229-2.976
					C314.444,223.662,315.766,223.18,317.13,223.057z"/>
				<path style="fill:#D17752;" d="M331.541,205.668l3.456,14.074c0.469,1.875-2.644,7.897-7.231,10.433
					c-2.692,1.488-6.051-0.164-6.577-3.194l-2.358-13.596L331.541,205.668z"/>
				<path style="fill:#754C37;" d="M319.847,219.243l-1.055-6.129l8.848-8.233l0.4,2.466
					C328.039,207.348,327.857,211.723,319.847,219.243z"/>
			</g>
		</g>
		<polygon style="fill:#FFFFFF;" points="336.298,221.406 334.46,217.558 324.859,230.654 328.651,235.281 		"/>
		<polygon style="fill:#FFFFFF;" points="320.15,220.874 320.456,222.756 324.859,230.654 321.928,235.349 317.661,223.016 		"/>
		<path style="fill:#D17752;" d="M332.61,210.021l-16.554,5.791c-2.4,0.859-4.956,0.363-6.831-1.093
			c-1.467-1.14-2.307-2.911-2.542-4.754l-0.909-16.061l21.625-7.741L332.61,210.021z"/>
		<path style="fill:#303030;" d="M305.103,196.398c-3.231-0.325-6.927-7.33-6.045-11.677c0.561-2.764,2.99-5.561,5.368-5.526
			c2.574,0.037,2.603,2.574,5.648,2.729c2.451,0.125,3.947-1.545,5.725-0.9c1.833,0.665,1.486,1.447,3.352,2.1
			c2.228,0.78,2.808-0.78,6.528-0.3c1.54,0.199,3.612,1.329,4.899,3.943c0.983,1.997,0,4.674,2.541,6.917
			c3.329,2.937-1.337,9.875-3.563,10.001c-1.338,0.076-1.969-1.557-3.751-6.142c-0.865-2.227,0.113-4.271-1.008-4.815
			c-1.215-0.589-3.468,1.841-5.968,2.035c-2.576,0.2-4.151-0.489-6.561-0.69C308.336,193.745,308.239,196.713,305.103,196.398z"/>
		<path style="fill:#D17752;" d="M333.826,198.256c0.865,2.417-0.393,5.079-2.81,5.944c-2.417,0.865-5.079-0.393-5.944-2.811
			c-0.865-2.417,0.393-5.078,2.81-5.944C330.299,194.58,332.96,195.839,333.826,198.256z"/>
		<path style="fill:#D17752;" d="M306.78,197.13l-2.82,6.511c-0.42,0.97,0.456,1.833,1.635,1.61l2.421-0.458L306.78,197.13z"/>
		<g>
			<polygon style="fill:#303030;" points="328.897,201.356 328.615,201.223 330.001,198.289 330.283,198.422 			"/>
			<polygon style="fill:#303030;" points="330.849,200.657 327.915,199.269 328.049,198.988 330.983,200.376 			"/>
		</g>
		<path style="fill:#303030;" d="M310.708,200.089c0.125,0.35-0.057,0.735-0.407,0.861c-0.35,0.125-0.735-0.057-0.861-0.407
			c-0.125-0.35,0.057-0.736,0.407-0.861C310.198,199.557,310.583,199.739,310.708,200.089z"/>
		<path style="fill:#303030;" d="M312.686,198.649c-0.087,0.031-0.183,0.037-0.278,0.011l-2.758-0.739
			c-0.248-0.066-0.395-0.322-0.329-0.57c0.066-0.251,0.323-0.396,0.572-0.33l2.758,0.739c0.248,0.067,0.395,0.322,0.329,0.57
			C312.938,198.485,312.824,198.599,312.686,198.649z"/>
		<path style="fill:#FFFFFF;" d="M308.55,207.239c0,0,2.414-0.52,5.147-3.222C313.697,204.018,314.162,210.48,308.55,207.239z"/>
		<g>
			<path style="fill:#D17752;" d="M262.351,244.045l-8.93-4.792c-0.289-0.172-0.594-0.276-0.887-0.297
				c-0.872-0.063-2.632-0.097-2.065,0.727c0.744,1.082,11.08,7.442,11.08,7.442"/>
			<path style="fill:#D17752;" d="M270.357,238.609l-2.986-0.031c-0.529-0.006-1.084-0.11-1.638-0.308l-8.924-3.717
				c0,0-2.65-0.283-2.048,0.981c0.603,1.265,9.767,6.799,9.767,6.799l-11.106-6.609c-0.233-0.139-0.478-0.223-0.715-0.243
				c-0.919-0.077-3.194-0.175-2.512,0.817c0.849,1.234,12.637,8.488,12.637,8.488"/>
			<path style="fill:#D17752;" d="M252.327,242.179c0.437-0.099,1.228,0.051,2.13,0.342l6.431,4.005l3.433-4.787l6.035-3.131
				l5.356,2.808c0,0,3.529,7.886-6.415,10.175c-0.686,0.158-1.475,0.086-2.264-0.195l-6.736-2.401
				c-0.132-0.066-0.258-0.143-0.381-0.232c-1.225-0.895-7.855-5.14-8.194-5.633C251.529,242.848,251.927,242.27,252.327,242.179z"/>
			<path style="fill:#D17752;" d="M266.789,238.609l1.125-0.146c1.05-0.137,1.691-1.239,1.272-2.211
				c-0.117-0.272-0.235-0.549-0.321-0.821l-1.523-3.409c-0.195-0.436,0.075-0.8,0.515-0.679c0.847,0.233,2.538,0.67,3.732,2.785
				l4.728,7.85L266.789,238.609z"/>
			<path style="fill:#28B1D4;" d="M305.426,266.556l-37.75-12.781l6.031-19.892l34.683,10.943l36.222-8.654
				c5.642-1.606,11.475,1.855,12.769,7.576l0,0c1.204,5.32-1.981,10.649-7.238,12.107L305.426,266.556z"/>
			
				<rect x="270.062" y="233.51" transform="matrix(0.9585 0.2851 -0.2851 0.9585 81.1011 -67.8861)" style="fill:#FFFFFF;" width="7.397" height="22.307"/>
		</g>
	</g>
</g>
<g id="DESIGNED_BY_FREEPIK">
	<g>
		<g id="XMLID_1_">
			<g id="XMLID_20_">
				<path id="XMLID_28_" style="fill:#999999;" d="M261.418,465.465c-0.432,0.443-0.803,0.931-1.108,1.453l-0.465-0.241
					c-0.067-0.298-0.349-0.503-0.659-0.466c-0.331,0.039-0.568,0.339-0.529,0.67c0.039,0.331,0.339,0.568,0.67,0.529
					c0.065-0.008,0.127-0.026,0.184-0.052l0.452,0.234c-0.251,0.554-0.433,1.139-0.539,1.744l0.747,0.132
					c0.23-1.306,0.85-2.507,1.792-3.473L261.418,465.465z"/>
				<path id="XMLID_27_" style="fill:#999999;" d="M266.905,463.163c-0.171,0-0.341,0.006-0.51,0.017l-0.074-0.626
					c0.188-0.149,0.296-0.389,0.266-0.645c-0.046-0.393-0.402-0.674-0.795-0.628c-0.393,0.046-0.674,0.402-0.628,0.795
					c0.03,0.254,0.189,0.461,0.405,0.564l0.073,0.624c-0.714,0.116-1.403,0.332-2.06,0.646l0.327,0.684
					c0.934-0.447,1.942-0.673,2.995-0.673c0.496,0,0.993,0.053,1.475,0.158l0.161-0.741
					C268.006,463.222,267.456,463.163,266.905,463.163z"/>
				<path id="XMLID_26_" style="fill:#999999;" d="M273.508,465.711c0.331-0.04,0.566-0.341,0.526-0.672
					c-0.04-0.331-0.341-0.566-0.672-0.526c-0.309,0.038-0.535,0.304-0.53,0.609l-0.416,0.363c-0.418-0.43-0.89-0.813-1.408-1.139
					l-0.404,0.641c1.134,0.715,2.021,1.726,2.563,2.925l0.691-0.313c-0.251-0.554-0.568-1.072-0.942-1.545l0.402-0.351
					C273.378,465.716,273.442,465.719,273.508,465.711z"/>
				<path id="XMLID_25_" style="fill:#999999;" d="M266.358,473.372c-0.386,0.023-0.775,0.035-1.157,0.035
					c-0.88,0-1.733-0.061-2.478-0.179c-0.39-0.062-0.846-0.155-1.27-0.292c1.046,1.861,3.069,3.125,5.388,3.125
					c2.855,0,5.262-1.916,5.95-4.504c-0.682,0.449-1.506,0.825-2.459,1.123C269.152,473.047,267.777,473.286,266.358,473.372z"/>
				<path id="XMLID_21_" style="fill:#999999;" d="M266.905,464.68c-3.352,0-6.08,2.666-6.08,5.943c0,0.426,0.046,0.849,0.137,1.261
					c0.673,0.483,2.706,0.89,5.348,0.731c2.879-0.173,5.297-0.957,6.672-2.159c-0.005-0.195-0.021-0.39-0.045-0.582
					C272.557,466.913,269.964,464.68,266.905,464.68z M264.746,471.194c-1.02,0-1.85-0.83-1.85-1.85c0-1.02,0.83-1.85,1.85-1.85
					c1.02,0,1.85,0.83,1.85,1.85C266.596,470.365,265.766,471.194,264.746,471.194z M269.483,470.286c-0.75,0-1.36-0.61-1.36-1.36
					s0.61-1.361,1.36-1.361c0.75,0,1.361,0.61,1.361,1.361S270.233,470.286,269.483,470.286z"/>
			</g>
			<path id="XMLID_18_" style="fill:#999999;" d="M282.909,466.547c-0.295-0.116-0.805-0.309-1.382-0.237
				c-0.551,0.069-0.844,0.341-0.844,1.007v0.866h2.228v1.717h-2.228v5.455h-1.932v-5.455h-1.34v-1.717h1.34v-0.888
				c0-1.68,0.896-2.783,2.568-2.783c0.643,0,1.157,0.122,1.59,0.308L282.909,466.547z"/>
			<path id="XMLID_16_" style="fill:#999999;" d="M287.611,469.879c-0.177-0.03-0.358-0.046-0.526-0.046
				c-0.896,0-1.51,0.548-1.51,1.614v3.908h-1.932v-7.172h1.873v0.785c0.451-0.673,1.14-0.977,2.021-0.977
				c0.414,0,0.848,0.128,1.094,0.337L287.611,469.879z"/>
			<path id="XMLID_13_" style="fill:#999999;" d="M295.279,471.757c0,0.222-0.015,0.489-0.037,0.651h-5.085
				c0.207,1.036,0.933,1.488,1.843,1.488c0.622,0,1.295-0.252,1.813-0.688l1.133,1.243c-0.814,0.748-1.85,1.088-3.057,1.088
				c-2.198,0-3.723-1.495-3.723-3.753c0-2.258,1.48-3.797,3.626-3.797C293.858,467.99,295.271,469.522,295.279,471.757z
				 M290.164,471.091h3.175c-0.177-0.918-0.733-1.436-1.562-1.436C290.867,469.655,290.335,470.203,290.164,471.091z"/>
			<path id="XMLID_10_" style="fill:#999999;" d="M302.932,471.757c0,0.222-0.015,0.489-0.037,0.651h-5.085
				c0.207,1.036,0.933,1.488,1.843,1.488c0.622,0,1.295-0.252,1.813-0.688l1.132,1.243c-0.814,0.748-1.85,1.088-3.057,1.088
				c-2.198,0-3.723-1.495-3.723-3.753c0-2.258,1.48-3.797,3.627-3.797C301.511,467.99,302.924,469.522,302.932,471.757z
				 M297.818,471.091h3.175c-0.178-0.918-0.733-1.436-1.562-1.436C298.521,469.655,297.988,470.203,297.818,471.091z"/>
			<path id="XMLID_7_" style="fill:#999999;" d="M311.278,471.764c0,2.154-1.495,3.775-3.471,3.775
				c-0.962,0-1.643-0.378-2.109-0.933v3.708h-1.924v-10.133h1.887v0.792c0.466-0.585,1.155-0.984,2.139-0.984
				C309.783,467.99,311.278,469.61,311.278,471.764z M305.601,471.764c0,1.132,0.748,1.976,1.843,1.976
				c1.14,0,1.85-0.881,1.85-1.976c0-1.095-0.71-1.976-1.85-1.976C306.348,469.788,305.601,470.632,305.601,471.764z"/>
			<path id="XMLID_4_" style="fill:#999999;" d="M314.381,465.836c0,0.696-0.54,1.229-1.236,1.229c-0.696,0-1.229-0.533-1.229-1.229
				c0-0.696,0.533-1.243,1.229-1.243C313.841,464.592,314.381,465.14,314.381,465.836z M314.122,475.354h-1.932v-7.172h1.932
				V475.354z"/>
			<path id="XMLID_2_" style="fill:#999999;" d="M317.346,470.736l2.701-2.554h2.368l-3.479,3.375l3.501,3.797h-2.376l-2.716-2.901
				v2.901h-1.932v-10.658h1.932V470.736z"/>
		</g>
		<g>
			<path style="fill:#999999;" d="M185.726,475.289v-1.055c-0.527,0.718-1.391,1.23-2.387,1.23c-1.846,0-3.149-1.406-3.149-3.706
				c0-2.256,1.289-3.721,3.149-3.721c0.952,0,1.816,0.469,2.387,1.245v-3.765h1.099v9.77H185.726z M185.726,473.37v-3.208
				c-0.395-0.615-1.245-1.143-2.124-1.143c-1.421,0-2.27,1.172-2.27,2.739c0,1.567,0.85,2.724,2.27,2.724
				C184.481,474.483,185.33,473.986,185.726,473.37z"/>
			<path style="fill:#999999;" d="M188.245,471.744c0-2.051,1.465-3.706,3.486-3.706c2.139,0,3.398,1.67,3.398,3.794v0.279h-5.727
				c0.088,1.333,1.025,2.446,2.549,2.446c0.805,0,1.626-0.322,2.182-0.894l0.527,0.718c-0.703,0.703-1.655,1.084-2.812,1.084
				C189.754,475.465,188.245,473.956,188.245,471.744z M191.717,468.947c-1.509,0-2.256,1.274-2.314,2.358h4.644
				C194.031,470.25,193.328,468.947,191.717,468.947z"/>
			<path style="fill:#999999;" d="M195.921,474.351l0.571-0.791c0.469,0.542,1.362,1.011,2.329,1.011c1.084,0,1.67-0.513,1.67-1.216
				c0-1.714-4.38-0.659-4.38-3.281c0-1.098,0.952-2.036,2.636-2.036c1.201,0,2.051,0.454,2.622,1.026l-0.513,0.762
				c-0.424-0.513-1.201-0.894-2.109-0.894c-0.967,0-1.567,0.483-1.567,1.113c0,1.552,4.38,0.527,4.38,3.281
				c0,1.187-0.952,2.138-2.783,2.138C197.62,475.465,196.638,475.113,195.921,474.351z"/>
			<path style="fill:#999999;" d="M202.79,466.471c0-0.41,0.337-0.747,0.732-0.747c0.41,0,0.747,0.337,0.747,0.747
				c0,0.41-0.337,0.732-0.747,0.732C203.127,467.203,202.79,466.881,202.79,466.471z M202.981,475.289v-7.075h1.099v7.075H202.981z"
				/>
			<path style="fill:#999999;" d="M205.896,477.105l0.556-0.82c0.586,0.703,1.289,0.967,2.3,0.967c1.172,0,2.27-0.571,2.27-2.124
				v-1.011c-0.513,0.718-1.377,1.26-2.373,1.26c-1.845,0-3.149-1.377-3.149-3.662c0-2.27,1.289-3.677,3.149-3.677
				c0.952,0,1.802,0.469,2.373,1.245v-1.069h1.098v6.87c0,2.344-1.641,3.076-3.369,3.076
				C207.551,478.16,206.73,477.926,205.896,477.105z M211.022,473.253v-3.091c-0.381-0.615-1.23-1.143-2.109-1.143
				c-1.421,0-2.27,1.128-2.27,2.695c0,1.553,0.849,2.695,2.27,2.695C209.792,474.41,210.641,473.868,211.022,473.253z"/>
			<path style="fill:#999999;" d="M218.727,475.289v-4.629c0-1.245-0.63-1.641-1.582-1.641c-0.865,0-1.685,0.527-2.095,1.099v5.17
				h-1.099v-7.075h1.099v1.025c0.498-0.586,1.465-1.201,2.519-1.201c1.48,0,2.256,0.747,2.256,2.285v4.966H218.727z"/>
			<path style="fill:#999999;" d="M221.246,471.744c0-2.051,1.465-3.706,3.486-3.706c2.138,0,3.398,1.67,3.398,3.794v0.279h-5.727
				c0.088,1.333,1.025,2.446,2.549,2.446c0.806,0,1.626-0.322,2.183-0.894l0.527,0.718c-0.703,0.703-1.655,1.084-2.812,1.084
				C222.755,475.465,221.246,473.956,221.246,471.744z M224.718,468.947c-1.509,0-2.256,1.274-2.314,2.358h4.643
				C227.032,470.25,226.329,468.947,224.718,468.947z"/>
			<path style="fill:#999999;" d="M234.663,475.289v-1.055c-0.527,0.718-1.391,1.23-2.388,1.23c-1.845,0-3.149-1.406-3.149-3.706
				c0-2.256,1.289-3.721,3.149-3.721c0.952,0,1.817,0.469,2.388,1.245v-3.765h1.098v9.77H234.663z M234.663,473.37v-3.208
				c-0.396-0.615-1.245-1.143-2.124-1.143c-1.421,0-2.27,1.172-2.27,2.739c0,1.567,0.849,2.724,2.27,2.724
				C233.418,474.483,234.268,473.986,234.663,473.37z"/>
			<path style="fill:#999999;" d="M241.005,475.289v-9.77h1.099v3.765c0.572-0.776,1.421-1.245,2.388-1.245
				c1.845,0,3.149,1.465,3.149,3.721c0,2.299-1.304,3.706-3.149,3.706c-0.996,0-1.86-0.513-2.388-1.23v1.055H241.005z
				 M244.213,474.483c1.436,0,2.286-1.157,2.286-2.724c0-1.568-0.85-2.739-2.286-2.739c-0.864,0-1.728,0.527-2.109,1.143v3.208
				C242.485,473.986,243.349,474.483,244.213,474.483z"/>
			<path style="fill:#999999;" d="M248.842,477.061c0.161,0.073,0.425,0.117,0.601,0.117c0.483,0,0.806-0.161,1.055-0.747
				l0.469-1.069l-2.959-7.148h1.187l2.358,5.8l2.344-5.8h1.201l-3.545,8.51c-0.425,1.025-1.143,1.421-2.08,1.435
				c-0.234,0-0.601-0.044-0.805-0.103L248.842,477.061z"/>
		</g>
	</g>
</g>
</svg>
